<svg width="115" height="150" viewBox="0 0 115 150" fill="none" xmlns="http://www.w3.org/2000/svg">
<path d="M114.636 130.752C104.534 130.752 96.3282 138.958 96.3282 149.06C96.3282 138.958 88.1224 130.752 78.0206 130.752C88.1224 130.752 96.3282 122.547 96.3282 112.445C96.2986 122.547 104.504 130.752 114.636 130.752ZM56.9581 45.732C56.9581 83.7098 56.9581 83.7098 25.2013 83.7098C56.9581 83.7098 56.9581 83.7098 56.9581 121.688C56.9581 83.7098 56.9581 83.7098 88.6852 83.7098C56.9581 83.7098 56.9581 83.7098 56.9581 45.732ZM4.52388 49.1684C2.53908 49.1388 0.435791 51.1236 0.435791 53.0491C0.435791 55.0932 2.45021 57.1668 4.37576 57.1076C6.39018 57.0483 8.28611 55.0932 8.31573 53.0491C8.5231 51.0939 6.36056 49.198 4.52388 49.1684ZM54.9437 8.87995C56.9581 8.8207 58.854 6.86553 58.8836 4.82149C59.1206 2.89594 56.9285 0.970386 55.1214 0.940762C53.107 0.911138 51.0037 2.86631 51.0333 4.82149C51.0037 6.86553 53.0181 8.9392 54.9437 8.87995ZM109.511 65.106C111.525 65.0468 113.421 63.0916 113.451 61.0475C113.688 59.122 111.496 57.1964 109.689 57.1668C107.674 57.1372 105.571 59.0924 105.6 61.0475C105.6 63.0916 107.615 65.1653 109.511 65.106ZM11.4559 126.783C9.44144 126.753 7.33815 128.708 7.36777 130.664C7.36777 132.708 9.38219 134.781 11.3077 134.722C13.3222 134.663 15.2181 132.708 15.2477 130.664C15.4551 128.708 13.2925 126.812 11.4559 126.783Z" fill="url(#paint0_linear_350_3219)"/>
<defs>
<linearGradient id="paint0_linear_350_3219" x1="0.435791" y1="0.94043" x2="120.739" y2="6.07557" gradientUnits="userSpaceOnUse">
<stop stop-color="#42B057"/>
<stop offset="1" stop-color="#189F71"/>
</linearGradient>
</defs>
</svg>
