<svg width="115" height="149" viewBox="0 0 115 149" fill="none" xmlns="http://www.w3.org/2000/svg">
<path d="M0.483917 130.252C10.5856 130.252 18.7915 138.458 18.7915 148.56C18.7915 138.458 26.9973 130.252 37.099 130.252C26.9973 130.252 18.7915 122.047 18.7915 111.945C18.8211 122.047 10.6153 130.252 0.483917 130.252ZM58.1615 45.232C58.1615 83.2098 58.1615 83.2098 89.9183 83.2098C58.1615 83.2098 58.1615 83.2098 58.1615 121.188C58.1615 83.2098 58.1615 83.2098 26.4344 83.2098C58.1615 83.2098 58.1615 83.2098 58.1615 45.232ZM110.596 48.6684C112.581 48.6388 114.684 50.6236 114.684 52.5491C114.684 54.5932 112.669 56.6668 110.744 56.6076C108.729 56.5483 106.834 54.5932 106.804 52.5491C106.597 50.5939 108.759 48.698 110.596 48.6684ZM60.176 8.37995C58.1615 8.3207 56.2656 6.36553 56.236 4.32149C55.999 2.39594 58.1912 0.470386 59.9982 0.440762C62.0126 0.411138 64.1159 2.36631 64.0863 4.32149C64.1159 6.36553 62.1015 8.4392 60.176 8.37995ZM5.60883 64.606C3.59441 64.5468 1.69849 62.5916 1.66887 60.5475C1.43188 58.622 3.62405 56.6964 5.4311 56.6668C7.44552 56.6372 9.54881 58.5924 9.51919 60.5475C9.51919 62.5916 7.50476 64.6653 5.60883 64.606ZM103.664 126.283C105.678 126.253 107.781 128.208 107.752 130.164C107.752 132.208 105.737 134.281 103.812 134.222C101.797 134.163 99.9015 132.208 99.8719 130.164C99.6645 128.208 101.827 126.312 103.664 126.283Z" fill="url(#paint0_linear_350_3220)"/>
<defs>
<linearGradient id="paint0_linear_350_3220" x1="114.684" y1="0.44043" x2="-5.61937" y2="5.57557" gradientUnits="userSpaceOnUse">
<stop stop-color="#42B057"/>
<stop offset="1" stop-color="#189F71"/>
</linearGradient>
</defs>
</svg>
