<svg width="33" height="32" viewBox="0 0 33 32" fill="none" xmlns="http://www.w3.org/2000/svg">
<path d="M2.78833 9.15796H4.52834C5.60834 9.15796 6.45833 10.088 6.36833 11.158L5.53833 21.118C5.39833 22.748 6.68832 24.1479 8.32832 24.1479H18.9783C20.4183 24.1479 21.6783 22.968 21.7883 21.538L22.3283 14.038C22.4483 12.378 21.1883 11.028 19.5183 11.028H6.60834" stroke="#403F3F" stroke-width="1.5" stroke-miterlimit="10" stroke-linecap="round" stroke-linejoin="round"/>
<path d="M17.0383 29.158C17.7287 29.158 18.2883 28.5983 18.2883 27.908C18.2883 27.2176 17.7287 26.658 17.0383 26.658C16.348 26.658 15.7883 27.2176 15.7883 27.908C15.7883 28.5983 16.348 29.158 17.0383 29.158Z" stroke="#403F3F" stroke-width="1.5" stroke-miterlimit="10" stroke-linecap="round" stroke-linejoin="round"/>
<path d="M9.03833 29.158C9.72869 29.158 10.2883 28.5983 10.2883 27.908C10.2883 27.2176 9.72869 26.658 9.03833 26.658C8.34797 26.658 7.78833 27.2176 7.78833 27.908C7.78833 28.5983 8.34797 29.158 9.03833 29.158Z" stroke="#403F3F" stroke-width="1.5" stroke-miterlimit="10" stroke-linecap="round" stroke-linejoin="round"/>
<path d="M9.78833 15.158H21.7883" stroke="#403F3F" stroke-width="1.5" stroke-miterlimit="10" stroke-linecap="round" stroke-linejoin="round"/>
<circle cx="23.7593" cy="8.98383" r="8.82587" fill="#F07F75"/>
<path d="M23.3138 3.7701H25.3138V14.5061H23.0738V6.2021L21.1218 7.2741L20.1778 5.4341L23.3138 3.7701Z" fill="white"/>
</svg>
