<svg width="44" height="58" viewBox="0 0 44 58" fill="none" xmlns="http://www.w3.org/2000/svg">
<path d="M0.371319 50.068C4.21383 50.068 7.33516 53.1893 7.33516 57.0318C7.33516 53.1893 10.4565 50.068 14.299 50.068C10.4565 50.068 7.33516 46.9466 7.33516 43.1041C7.34642 46.9466 4.22509 50.068 0.371319 50.068ZM22.3108 17.7278C22.3108 32.1738 22.3108 32.1738 34.3905 32.1738C22.3108 32.1738 22.3108 32.1738 22.3108 46.6198C22.3108 32.1738 22.3108 32.1738 10.2424 32.1738C22.3108 32.1738 22.3108 32.1738 22.3108 17.7278ZM42.2558 19.0349C43.0107 19.0237 43.8108 19.7786 43.8108 20.5111C43.8108 21.2886 43.0445 22.0774 42.3121 22.0549C41.5459 22.0323 40.8247 21.2886 40.8134 20.5111C40.7345 19.7674 41.5571 19.0462 42.2558 19.0349ZM23.077 3.70998C22.3108 3.68745 21.5896 2.94374 21.5783 2.16622C21.4882 1.43378 22.3221 0.701336 23.0094 0.690068C23.7757 0.6788 24.5757 1.42251 24.5645 2.16622C24.5757 2.94374 23.8095 3.73252 23.077 3.70998ZM2.32074 25.0973C1.5545 25.0748 0.833321 24.3311 0.822052 23.5535C0.731907 22.8211 1.56577 22.0887 2.25314 22.0774C3.01938 22.0661 3.81944 22.8098 3.80817 23.5535C3.80817 24.3311 3.04192 25.1198 2.32074 25.0973ZM39.619 48.558C40.3852 48.5467 41.1853 49.2904 41.174 50.0342C41.174 50.8117 40.4078 51.6005 39.6753 51.5779C38.9091 51.5554 38.1879 50.8117 38.1766 50.0342C38.0977 49.2904 38.9203 48.5693 39.619 48.558Z" fill="url(#paint0_linear_350_3222)"/>
<defs>
<linearGradient id="paint0_linear_350_3222" x1="43.8108" y1="0.689941" x2="-1.95026" y2="2.64325" gradientUnits="userSpaceOnUse">
<stop stop-color="#42B057"/>
<stop offset="1" stop-color="#189F71"/>
</linearGradient>
</defs>
</svg>
