<svg width="44" height="58" viewBox="0 0 44 58" fill="none" xmlns="http://www.w3.org/2000/svg">
<path d="M43.5589 50.068C39.7164 50.068 36.595 53.1893 36.595 57.0318C36.595 53.1893 33.4737 50.068 29.6312 50.068C33.4737 50.068 36.595 46.9466 36.595 43.1041C36.5838 46.9466 39.7051 50.068 43.5589 50.068ZM21.6194 17.7278C21.6194 32.1738 21.6194 32.1738 9.53972 32.1738C21.6194 32.1738 21.6194 32.1738 21.6194 46.6198C21.6194 32.1738 21.6194 32.1738 33.6878 32.1738C21.6194 32.1738 21.6194 32.1738 21.6194 17.7278ZM1.67442 19.0349C0.919437 19.0237 0.119385 19.7786 0.119385 20.5111C0.119385 21.2886 0.885632 22.0774 1.61807 22.0549C2.38432 22.0323 3.1055 21.2886 3.11676 20.5111C3.19564 19.7674 2.37305 19.0462 1.67442 19.0349ZM20.8531 3.70998C21.6194 3.68745 22.3406 2.94374 22.3518 2.16622C22.442 1.43378 21.6081 0.701336 20.9208 0.690068C20.1545 0.6788 19.3545 1.42251 19.3657 2.16622C19.3545 2.94374 20.1207 3.73252 20.8531 3.70998ZM41.6094 25.0973C42.3757 25.0748 43.0969 24.3311 43.1081 23.5535C43.1983 22.8211 42.3644 22.0887 41.677 22.0774C40.9108 22.0661 40.1107 22.8098 40.122 23.5535C40.122 24.3311 40.8883 25.1198 41.6094 25.0973ZM4.31121 48.558C3.54496 48.5467 2.74491 49.2904 2.75618 50.0342C2.75618 50.8117 3.52243 51.6005 4.25487 51.5779C5.02111 51.5554 5.74229 50.8117 5.75356 50.0342C5.83244 49.2904 5.00985 48.5693 4.31121 48.558Z" fill="url(#paint0_linear_350_3221)"/>
<defs>
<linearGradient id="paint0_linear_350_3221" x1="0.119385" y1="0.689941" x2="45.8804" y2="2.64325" gradientUnits="userSpaceOnUse">
<stop stop-color="#42B057"/>
<stop offset="1" stop-color="#189F71"/>
</linearGradient>
</defs>
</svg>
